<svg width="74" height="73" viewBox="0 0 74 73" fill="none" xmlns="http://www.w3.org/2000/svg">
<path d="M36.9297 6.3594C37.3039 5.89108 37.7674 5.50165 38.2932 5.21365C38.8189 4.92564 39.3966 4.74479 39.9928 4.68154C40.5889 4.6183 41.1917 4.67393 41.7662 4.84522C42.3407 5.0165 42.8756 5.30003 43.3397 5.67941L58.1273 17.7561C58.9406 18.4201 59.4981 19.3458 59.7048 20.3751C59.9115 21.4044 59.7545 22.4736 59.2607 23.4C57.9678 23.0049 56.6233 22.8047 55.2714 22.8062H53.9114L55.2623 21.2648L47.4741 14.9046L41.0504 22.8107H35.207L43.9608 12.0396L40.4702 9.18817L29.5993 22.8062H23.7967L36.9297 6.3594ZM48.4714 45.4726C47.8703 45.4726 47.2937 45.7114 46.8687 46.1365C46.4436 46.5616 46.2048 47.1381 46.2048 47.7393C46.2048 48.3404 46.4436 48.9169 46.8687 49.342C47.2937 49.7671 47.8703 50.0059 48.4714 50.0059H53.0047C53.6059 50.0059 54.1824 49.7671 54.6075 49.342C55.0326 48.9169 55.2714 48.3404 55.2714 47.7393C55.2714 47.1381 55.0326 46.5616 54.6075 46.1365C54.1824 45.7114 53.6059 45.4726 53.0047 45.4726H48.4714ZM14.4718 25.0728C14.4718 24.4717 14.7106 23.8951 15.1357 23.4701C15.5607 23.045 16.1373 22.8062 16.7384 22.8062H19.268L22.8719 18.2729H16.7384C14.935 18.2729 13.2054 18.9893 11.9301 20.2645C10.6549 21.5398 9.93848 23.2694 9.93848 25.0728V52.2725C9.93848 55.2783 11.1325 58.1609 13.2579 60.2863C15.3833 62.4117 18.2659 63.6058 21.2717 63.6058H55.2714C57.676 63.6058 59.9821 62.6505 61.6824 60.9502C63.3827 59.2499 64.3379 56.9438 64.3379 54.5392V36.406C64.3379 34.0014 63.3827 31.6953 61.6824 29.995C59.9821 28.2947 57.676 27.3395 55.2714 27.3395H16.7384C16.1373 27.3395 15.5607 27.1006 15.1357 26.6756C14.7106 26.2505 14.4718 25.674 14.4718 25.0728ZM14.4718 52.2725V31.4874C15.179 31.7367 15.9451 31.8727 16.7384 31.8727H55.2714C56.4737 31.8727 57.6267 32.3504 58.4769 33.2005C59.327 34.0507 59.8046 35.2037 59.8046 36.406V54.5392C59.8046 55.7415 59.327 56.8945 58.4769 57.7447C57.6267 58.5949 56.4737 59.0725 55.2714 59.0725H21.2717C19.4682 59.0725 17.7387 58.3561 16.4634 57.0808C15.1882 55.8056 14.4718 54.076 14.4718 52.2725Z" fill="#EB4C56"/>
</svg>
